<svg width="26" height="24" viewBox="0 0 26 24" fill="none" xmlns="http://www.w3.org/2000/svg">
<path d="M1.68351 13.2618C0.632759 11.4916 0.264462 9.39856 0.64779 7.37594C1.03112 5.35331 2.1397 3.54022 3.76533 2.27717C5.39096 1.01412 7.42179 0.388029 9.47641 0.516472C11.531 0.644914 13.4681 1.51906 14.9237 2.97473C16.3794 4.4304 17.2536 6.36744 17.382 8.42206C17.5104 10.4767 16.8843 12.5075 15.6213 14.1331C14.3583 15.7588 12.5452 16.8673 10.5225 17.2507C8.49991 17.634 6.40691 17.2657 4.63664 16.215L1.71867 17.047C1.59844 17.0808 1.47138 17.082 1.35055 17.0504C1.22972 17.0188 1.11949 16.9556 1.03118 16.8673C0.942869 16.779 0.879675 16.6687 0.848092 16.5479C0.81651 16.4271 0.81768 16.3 0.851482 16.1798L1.68351 13.2618Z" stroke-linecap="round" stroke-linejoin="round"/>
<path d="M8.48041 17.3868C8.89343 18.5644 9.56286 19.6355 10.4403 20.5228C11.3178 21.4101 12.3814 22.0914 13.5543 22.5175C14.7272 22.9436 15.9801 23.1038 17.2225 22.9867C18.4648 22.8695 19.6657 22.4778 20.7382 21.84L23.6562 22.672C23.7764 22.7058 23.9035 22.707 24.0243 22.6754C24.1451 22.6438 24.2554 22.5806 24.3437 22.4923C24.432 22.404 24.4952 22.2938 24.5268 22.1729C24.5583 22.0521 24.5572 21.925 24.5234 21.8048L23.6913 18.8868C24.4342 17.64 24.8423 16.2224 24.8762 14.7714C24.9102 13.3205 24.5687 11.8854 23.885 10.6051C23.2013 9.32492 22.1984 8.24303 20.9737 7.46428C19.749 6.68554 18.3438 6.23637 16.8945 6.16028" stroke-linecap="round" stroke-linejoin="round"/>
<path d="M6.18745 8.47361C6.18745 8.69452 6.00837 8.87361 5.78745 8.87361C5.56654 8.87361 5.38745 8.69452 5.38745 8.47361C5.38745 8.25269 5.56654 8.07361 5.78745 8.07361C6.00837 8.07361 6.18745 8.25269 6.18745 8.47361Z" fill="#FAFAFA" />
<path d="M9.18745 8.47361C9.18745 8.69452 9.00837 8.87361 8.78745 8.87361C8.56654 8.87361 8.38745 8.69452 8.38745 8.47361C8.38745 8.25269 8.56654 8.07361 8.78745 8.07361C9.00837 8.07361 9.18745 8.25269 9.18745 8.47361Z" fill="#FAFAFA" />
<path d="M12.1875 8.47361C12.1875 8.69452 12.0084 8.87361 11.7875 8.87361C11.5665 8.87361 11.3875 8.69452 11.3875 8.47361C11.3875 8.25269 11.5665 8.07361 11.7875 8.07361C12.0084 8.07361 12.1875 8.25269 12.1875 8.47361Z" fill="#FAFAFA" />
<path d="M20.5874 15.0736C20.5874 15.2945 20.4083 15.4736 20.1874 15.4736C19.9665 15.4736 19.7874 15.2945 19.7874 15.0736C19.7874 14.8527 19.9665 14.6736 20.1874 14.6736C20.4083 14.6736 20.5874 14.8527 20.5874 15.0736Z" fill="#FAFAFA" />
<path d="M17.5875 15.0736C17.5875 15.2945 17.4084 15.4736 17.1875 15.4736C16.9666 15.4736 16.7875 15.2945 16.7875 15.0736C16.7875 14.8527 16.9666 14.6736 17.1875 14.6736C17.4084 14.6736 17.5875 14.8527 17.5875 15.0736Z" fill="#FAFAFA" />
</svg>
