<svg width="50" height="50" viewBox="0 0 50 50" fill="none" xmlns="http://www.w3.org/2000/svg">
<path d="M6.66014 27.4805C4.90889 24.53 4.29506 21.0417 4.93394 17.6706C5.57282 14.2996 7.42045 11.2778 10.1298 9.1727C12.8392 7.06763 16.2239 6.02414 19.6483 6.23821C23.0727 6.45228 26.3011 7.90918 28.7272 10.3353C31.1533 12.7614 32.6102 15.9898 32.8243 19.4142C33.0384 22.8386 31.9949 26.2233 29.8898 28.9327C27.7847 31.642 24.7629 33.4897 21.3918 34.1286C18.0208 34.7674 14.5325 34.1536 11.582 32.4023L6.71874 33.7891C6.51836 33.8454 6.30659 33.8474 6.10521 33.7947C5.90383 33.7421 5.7201 33.6368 5.57292 33.4896C5.42574 33.3424 5.32041 33.1587 5.26778 32.9573C5.21514 32.7559 5.21709 32.5441 5.27343 32.3438L6.66014 27.4805Z" stroke="#5B21B6" stroke-width="2.5" stroke-linecap="round" stroke-linejoin="round"/>
<path d="M17.9883 34.3555C18.6766 36.3181 19.7924 38.1033 21.2548 39.5821C22.7173 41.0609 24.4899 42.1964 26.4447 42.9066C28.3996 43.6168 30.4877 43.8838 32.5584 43.6886C34.629 43.4933 36.6304 42.8405 38.418 41.7774L43.2812 43.1641C43.4816 43.2204 43.6934 43.2224 43.8948 43.1697C44.0962 43.1171 44.2799 43.0118 44.4271 42.8646C44.5742 42.7174 44.6796 42.5337 44.7322 42.3323C44.7848 42.1309 44.7829 41.9192 44.7266 41.7188L43.3398 36.8555C44.5779 34.7774 45.2581 32.4147 45.3147 29.9965C45.3712 27.5782 44.8021 25.1864 43.6626 23.0527C42.523 20.919 40.8517 19.1158 38.8104 17.8179C36.7692 16.52 34.4273 15.7714 32.0117 15.6446" stroke="#5B21B6" stroke-width="2.5" stroke-linecap="round" stroke-linejoin="round"/>
<path d="M13.5 21C14.3284 21 15 20.3284 15 19.5C15 18.6716 14.3284 18 13.5 18C12.6716 18 12 18.6716 12 19.5C12 20.3284 12.6716 21 13.5 21Z" fill="#FAFAFA"/>
<path d="M18.5 21C19.3284 21 20 20.3284 20 19.5C20 18.6716 19.3284 18 18.5 18C17.6716 18 17 18.6716 17 19.5C17 20.3284 17.6716 21 18.5 21Z" fill="#FAFAFA"/>
<path d="M23.5 21C24.3284 21 25 20.3284 25 19.5C25 18.6716 24.3284 18 23.5 18C22.6716 18 22 18.6716 22 19.5C22 20.3284 22.6716 21 23.5 21Z" fill="#FAFAFA"/>
<path d="M37.5 32C38.3284 32 39 31.3284 39 30.5C39 29.6716 38.3284 29 37.5 29C36.6716 29 36 29.6716 36 30.5C36 31.3284 36.6716 32 37.5 32Z" fill="#FAFAFA"/>
<path d="M32.5 32C33.3284 32 34 31.3284 34 30.5C34 29.6716 33.3284 29 32.5 29C31.6716 29 31 29.6716 31 30.5C31 31.3284 31.6716 32 32.5 32Z" fill="#FAFAFA"/>
</svg>
