<svg width="172" height="50" viewBox="0 0 172 50" fill="none" xmlns="http://www.w3.org/2000/svg">
<path d="M0.768 34.504C0.768 32.84 1.112 31.36 1.8 30.064C2.504 28.752 3.496 27.736 4.776 27.016C6.056 26.28 7.528 25.912 9.192 25.912C11.304 25.912 13.08 26.48 14.52 27.616C15.96 28.736 16.888 30.264 17.304 32.2H12.24C11.936 31.56 11.512 31.072 10.968 30.736C10.44 30.4 9.824 30.232 9.12 30.232C8.032 30.232 7.16 30.624 6.504 31.408C5.864 32.176 5.544 33.208 5.544 34.504C5.544 35.816 5.864 36.864 6.504 37.648C7.16 38.416 8.032 38.8 9.12 38.8C9.824 38.8 10.44 38.632 10.968 38.296C11.512 37.96 11.936 37.472 12.24 36.832H17.304C16.888 38.768 15.96 40.304 14.52 41.44C13.08 42.56 11.304 43.12 9.192 43.12C7.528 43.12 6.056 42.76 4.776 42.04C3.496 41.304 2.504 40.288 1.8 38.992C1.112 37.68 0.768 36.184 0.768 34.504ZM28.3875 29.416C29.9235 29.416 31.1395 29.936 32.0355 30.976C32.9475 32 33.4035 33.392 33.4035 35.152V43H28.6995V35.776C28.6995 35.008 28.4995 34.408 28.0995 33.976C27.6995 33.528 27.1635 33.304 26.4915 33.304C25.7875 33.304 25.2355 33.528 24.8355 33.976C24.4355 34.408 24.2355 35.008 24.2355 35.776V43H19.5315V25.24H24.2355V31.456C24.6515 30.848 25.2115 30.36 25.9155 29.992C26.6355 29.608 27.4595 29.416 28.3875 29.416ZM35.2166 36.256C35.2166 34.864 35.4646 33.648 35.9606 32.608C36.4726 31.568 37.1606 30.768 38.0246 30.208C38.9046 29.648 39.8806 29.368 40.9526 29.368C41.8806 29.368 42.6806 29.552 43.3526 29.92C44.0246 30.288 44.5446 30.784 44.9126 31.408V29.536H49.6166V43H44.9126V41.128C44.5446 41.752 44.0166 42.248 43.3286 42.616C42.6566 42.984 41.8646 43.168 40.9526 43.168C39.8806 43.168 38.9046 42.888 38.0246 42.328C37.1606 41.768 36.4726 40.968 35.9606 39.928C35.4646 38.872 35.2166 37.648 35.2166 36.256ZM44.9126 36.256C44.9126 35.392 44.6726 34.712 44.1926 34.216C43.7286 33.72 43.1526 33.472 42.4646 33.472C41.7606 33.472 41.1766 33.72 40.7126 34.216C40.2486 34.696 40.0166 35.376 40.0166 36.256C40.0166 37.12 40.2486 37.808 40.7126 38.32C41.1766 38.816 41.7606 39.064 42.4646 39.064C43.1526 39.064 43.7286 38.816 44.1926 38.32C44.6726 37.824 44.9126 37.136 44.9126 36.256ZM60.2411 38.992V43H58.2011C54.7611 43 53.0411 41.296 53.0411 37.888V33.448H51.3851V29.536H53.0411V26.272H57.7691V29.536H60.2171V33.448H57.7691V37.96C57.7691 38.328 57.8491 38.592 58.0091 38.752C58.1851 38.912 58.4731 38.992 58.8731 38.992H60.2411ZM77.7827 26.08L71.8307 37.624V43H67.1027V37.624L61.1507 26.08H66.5267L69.5027 32.608L72.4787 26.08H77.7827ZM93.0028 29.536V43H88.2748V41.08C87.8748 41.688 87.3228 42.184 86.6188 42.568C85.9148 42.936 85.1068 43.12 84.1948 43.12C82.6268 43.12 81.3868 42.608 80.4748 41.584C79.5788 40.544 79.1308 39.136 79.1308 37.36V29.536H83.8108V36.76C83.8108 37.528 84.0108 38.136 84.4108 38.584C84.8268 39.016 85.3708 39.232 86.0428 39.232C86.7308 39.232 87.2748 39.016 87.6748 38.584C88.0748 38.136 88.2748 37.528 88.2748 36.76V29.536H93.0028ZM100.384 31.408C100.752 30.784 101.272 30.288 101.944 29.92C102.616 29.552 103.408 29.368 104.32 29.368C105.392 29.368 106.36 29.648 107.224 30.208C108.104 30.768 108.792 31.568 109.288 32.608C109.8 33.648 110.056 34.864 110.056 36.256C110.056 37.648 109.8 38.872 109.288 39.928C108.792 40.968 108.104 41.768 107.224 42.328C106.36 42.888 105.392 43.168 104.32 43.168C103.408 43.168 102.616 42.984 101.944 42.616C101.288 42.248 100.768 41.752 100.384 41.128V49.432H95.6799V29.536H100.384V31.408ZM105.28 36.256C105.28 35.376 105.04 34.696 104.56 34.216C104.096 33.72 103.52 33.472 102.832 33.472C102.144 33.472 101.56 33.72 101.08 34.216C100.616 34.712 100.384 35.392 100.384 36.256C100.384 37.136 100.616 37.824 101.08 38.32C101.56 38.816 102.144 39.064 102.832 39.064C103.52 39.064 104.096 38.816 104.56 38.32C105.04 37.808 105.28 37.12 105.28 36.256Z" fill="#FAFAFA"/>
<path d="M128.66 27.4805C126.909 24.53 126.295 21.0417 126.934 17.6706C127.573 14.2996 129.42 11.2778 132.13 9.1727C134.839 7.06763 138.224 6.02414 141.648 6.23821C145.073 6.45228 148.301 7.90918 150.727 10.3353C153.153 12.7614 154.61 15.9898 154.824 19.4142C155.038 22.8386 153.995 26.2233 151.89 28.9327C149.785 31.642 146.763 33.4897 143.392 34.1286C140.021 34.7674 136.533 34.1536 133.582 32.4023L128.719 33.7891C128.518 33.8454 128.307 33.8474 128.105 33.7947C127.904 33.7421 127.72 33.6368 127.573 33.4896C127.426 33.3424 127.32 33.1587 127.268 32.9573C127.215 32.7559 127.217 32.5441 127.273 32.3438L128.66 27.4805Z" stroke="#5B21B6" stroke-width="2.5" stroke-linecap="round" stroke-linejoin="round"/>
<path d="M139.988 34.3555C140.677 36.3181 141.792 38.1033 143.255 39.5821C144.717 41.0609 146.49 42.1964 148.445 42.9066C150.4 43.6168 152.488 43.8838 154.558 43.6886C156.629 43.4933 158.63 42.8405 160.418 41.7774L165.281 43.1641C165.482 43.2204 165.693 43.2224 165.895 43.1697C166.096 43.1171 166.28 43.0118 166.427 42.8646C166.574 42.7174 166.68 42.5337 166.732 42.3323C166.785 42.1309 166.783 41.9192 166.727 41.7188L165.34 36.8555C166.578 34.7774 167.258 32.4147 167.315 29.9965C167.371 27.5782 166.802 25.1864 165.663 23.0527C164.523 20.919 162.852 19.1158 160.81 17.8179C158.769 16.52 156.427 15.7714 154.012 15.6446" stroke="#5B21B6" stroke-width="2.5" stroke-linecap="round" stroke-linejoin="round"/>
<path d="M135.5 21C136.328 21 137 20.3284 137 19.5C137 18.6716 136.328 18 135.5 18C134.672 18 134 18.6716 134 19.5C134 20.3284 134.672 21 135.5 21Z" fill="#FAFAFA"/>
<path d="M140.5 21C141.328 21 142 20.3284 142 19.5C142 18.6716 141.328 18 140.5 18C139.672 18 139 18.6716 139 19.5C139 20.3284 139.672 21 140.5 21Z" fill="#FAFAFA"/>
<path d="M145.5 21C146.328 21 147 20.3284 147 19.5C147 18.6716 146.328 18 145.5 18C144.672 18 144 18.6716 144 19.5C144 20.3284 144.672 21 145.5 21Z" fill="#FAFAFA"/>
<path d="M159.5 32C160.328 32 161 31.3284 161 30.5C161 29.6716 160.328 29 159.5 29C158.672 29 158 29.6716 158 30.5C158 31.3284 158.672 32 159.5 32Z" fill="#FAFAFA"/>
<path d="M154.5 32C155.328 32 156 31.3284 156 30.5C156 29.6716 155.328 29 154.5 29C153.672 29 153 29.6716 153 30.5C153 31.3284 153.672 32 154.5 32Z" fill="#FAFAFA"/>
</svg>
