<svg width="21" height="21" viewBox="0 0 21 21" fill="none" xmlns="http://www.w3.org/2000/svg">
<path d="M2.01959 15.5265C0.795173 13.4607 0.366887 11.019 0.815136 8.65984C1.26338 6.30067 2.55734 4.18623 4.45409 2.71348C6.35083 1.24074 8.71993 0.51096 11.1166 0.66116C13.5133 0.811359 15.7727 1.83121 17.4708 3.52924C19.1688 5.22727 20.1886 7.48672 20.3388 9.88339C20.489 12.2801 19.7593 14.6492 18.2865 16.5459C16.8138 18.4427 14.6993 19.7366 12.3402 20.1849C9.98098 20.6331 7.53931 20.2048 5.47354 18.9804L2.06071 19.9467C1.92088 19.9876 1.77263 19.9901 1.63149 19.954C1.49035 19.9179 1.36152 19.8445 1.25851 19.7415C1.1555 19.6385 1.08209 19.5096 1.04599 19.3685C1.00988 19.2274 1.01241 19.0791 1.05331 18.9393L2.01959 15.5265Z" stroke-linecap="round" stroke-linejoin="round"/>
<path d="M7.22106 8.84479H13.8" stroke-linecap="round" stroke-linejoin="round"/>
<path d="M7.22106 12.1342H13.8" stroke-linecap="round" stroke-linejoin="round"/>
</svg>
