<svg width="66" height="66" viewBox="0 0 66 66" fill="none" xmlns="http://www.w3.org/2000/svg">
<path d="M33 64.5C50.397 64.5 64.5 50.397 64.5 33C64.5 15.603 50.397 1.5 33 1.5C15.603 1.5 1.5 15.603 1.5 33C1.5 50.397 15.603 64.5 33 64.5Z" stroke="#71717A" stroke-width="2" stroke-linecap="round" stroke-linejoin="round"/>
<path d="M33 43.5C40.2487 43.5 46.125 37.6237 46.125 30.375C46.125 23.1263 40.2487 17.25 33 17.25C25.7513 17.25 19.875 23.1263 19.875 30.375C19.875 37.6237 25.7513 43.5 33 43.5Z" stroke="#71717A" stroke-width="2" stroke-linecap="round" stroke-linejoin="round"/>
<path d="M11.9343 56.4282C13.9093 52.538 16.923 49.2707 20.6413 46.9884C24.3595 44.7061 28.6371 43.498 33 43.498C37.3628 43.498 41.6404 44.7061 45.3586 46.9884C49.0769 49.2707 52.0906 52.538 54.0656 56.4282" stroke="#71717A" stroke-width="2" stroke-linecap="round" stroke-linejoin="round"/>
</svg>
